<?xml version="1.0" encoding="iso-8859-1"?>
<!-- Uploaded to: SVG Repo, www.svgrepo.com, Generator: SVG Repo Mixer Tools -->
<svg fill="#ffffffff" height="800px" width="800px" version="1.1" id="Layer_1" xmlns="http://www.w3.org/2000/svg" xmlns:xlink="http://www.w3.org/1999/xlink" 
	 viewBox="0 0 502.4 502.4" xml:space="preserve">
<g>
	<g>
		<path d="M481.067,73.6H21.333C9.6,73.6,0,83.2,0,94.933v312.533C0,419.2,9.6,428.8,21.333,428.8H480
			c11.733,0,21.333-8.533,22.4-20.267v-313.6C502.4,83.2,492.8,73.6,481.067,73.6z M459.733,387.2H41.6V116.267h418.133V387.2z"/>
	</g>
</g>
<g>
	<g>
		<path d="M115.2,226.133c-11.733,0-21.333,9.6-21.333,21.333v7.467c0,11.733,9.6,21.333,21.333,21.333
			c11.733,0,21.333-8.533,21.333-21.333v-7.467C136.533,235.733,126.933,226.133,115.2,226.133z"/>
	</g>
</g>
<g>
	<g>
		<path d="M386.134,226.133c-11.733,0-21.333,9.6-21.333,21.333v7.467c0,11.733,9.6,21.333,21.333,21.333
			c10.667,0,20.267-8.533,21.333-21.333v-7.467C407.467,235.733,397.867,226.133,386.134,226.133z"/>
	</g>
</g>
<g>
	<g>
		<path d="M294.4,256c-5.333-3.2-10.667-6.4-17.067-7.467c-6.4-2.133-12.8-3.2-19.2-5.333v-54.4c11.733,0,22.4,2.133,32,5.333
			c3.2,1.067,5.333,2.133,7.467,2.133c2.133,0,3.2-1.067,5.333-3.2c2.133-2.133,2.133-4.267,2.133-6.4c0-4.267-2.133-7.467-6.4-9.6
			c-11.733-4.267-25.6-6.4-40.533-7.467v-17.067c0-1.067,0-3.2-1.067-4.267c-1.067-1.067-2.133-1.067-3.2-1.067
			c-1.067,0-3.2,0-3.2,1.067c-1.067,1.067-1.067,2.133-1.067,4.267v18.133c-17.067,1.067-29.867,5.333-39.467,14.933
			c-4.267,4.267-7.467,8.533-10.667,14.933c-2.133,5.333-3.2,11.733-3.2,18.133c0,6.4,1.067,12.8,4.267,18.133
			c3.2,5.333,7.467,9.6,13.867,13.867c6.4,4.267,18.133,8.533,34.133,12.8v52.267c-17.067-3.2-29.867-5.334-40.534-9.6
			c-3.2-1.067-5.333-2.133-7.467-2.133s-4.267,1.067-5.333,3.2c-2.133,2.133-2.133,4.267-2.133,7.467c0,3.2,2.133,5.333,6.4,7.467
			c14.933,6.4,32,10.667,49.067,10.667v18.133c0,3.2,2.133,5.333,5.333,5.333c1.067,0,3.2,0,3.2-1.067
			c1.067-1.067,1.067-2.133,1.067-3.2v-18.133c16-1.067,28.8-5.333,38.4-13.867s14.933-18.133,14.933-30.933
			C311.467,275.201,306.133,263.467,294.4,256z M246.4,241.067c-4.267-2.133-8.534-3.2-12.8-4.266
			c-12.8-4.267-20.267-11.733-20.267-21.333c0-7.467,3.2-13.867,9.6-18.133c6.4-4.267,13.867-6.4,23.467-7.467V241.067z
			 M288,298.667c-4.267,8.533-14.933,13.867-30.933,14.933v-50.133c10.667,3.2,19.2,5.333,23.466,8.533
			c3.2,2.133,5.333,4.267,7.467,6.4c2.133,2.133,2.133,5.333,2.133,9.6S289.067,295.467,288,298.667z"/>
	</g>
</g>
</svg>